<?xml version="1.0" encoding="utf-8"?>
<!-- Generator: Adobe Illustrator 16.0.0, SVG Export Plug-In . SVG Version: 6.00 Build 0)  -->
<!DOCTYPE svg PUBLIC "-//W3C//DTD SVG 1.1//EN" "http://www.w3.org/Graphics/SVG/1.1/DTD/svg11.dtd">
<svg version="1.1" id="Layer_1" xmlns="http://www.w3.org/2000/svg" xmlns:xlink="http://www.w3.org/1999/xlink" x="0px" y="0px"
	 width="459.667px" height="68.001px" viewBox="0 0 459.667 68.001" enable-background="new 0 0 459.667 68.001"
	 xml:space="preserve">
<path fill-rule="evenodd" clip-rule="evenodd" fill="#99CEDA" stroke="#99CEDA" stroke-miterlimit="10" d="M69.473,36.423
	c0.894,1.034,1.809,1.342,2.731,1.412c0.917,0.07,1.853-0.131,2.78-0.2c0.543-0.042,1.087-0.059,1.722-0.091
	c-0.163,0.834-0.628,1.106-1.192,1.275c-0.721,0.216-1.436,0.457-2.167,0.631c-1.582,0.375-3.054-0.001-4.274-0.997
	c-1.157-0.942-1.043-0.755-2.295-0.101c-2.416,1.263-4.99,2.052-7.776,1.67c-2.637-0.361-4.581-1.897-6.307-3.793
	c-0.476-0.522-1.01-0.992-1.499-1.504c-0.488-0.511-0.955-0.386-1.325,0.087c-0.435,0.554-0.863,1.134-1.166,1.766
	c-0.672,1.402-1.305,2.827-1.874,4.274c-0.35,0.886-0.896,1.294-2.069,1.126c-0.165-0.504-0.517-1.105-0.527-1.712
	c-0.026-1.508-0.017-3.035,0.194-4.523c0.6-4.227,1.079-8.454,1.037-12.731c-0.028-2.844-0.663-3.113-3.447-2.136
	c-1.38,0.485-2.705,1.126-4.057,1.69c-0.827,0.345-1.648,0.703-2.49,1.008c-0.613,0.224-0.873,0.622-0.957,1.26
	c-0.448,3.378-1,6.745-1.364,10.133c-0.159,1.485,0.021,3.012,0.093,4.518c0.053,1.107-0.095,1.537-0.687,1.614
	c-0.604,0.079-0.893-0.28-1.086-1.376c-0.52-2.932-0.139-5.837,0.277-8.741c0.276-1.921,0.534-3.845,0.788-5.769
	c0.036-0.27,0.005-0.55,0.005-0.997c-0.541,0.079-0.985,0.134-1.426,0.21c-2.343,0.405-4.618,0.195-6.784-0.809
	c-1.383-0.64-2.18-1.777-2.458-3.261c-0.089-0.477-0.042-0.974,0.52-1.183c0.488-0.182,1.006,0.114,1.104,0.795
	c0.276,1.935,1.738,2.562,3.291,2.802c2.15,0.331,4.342,0.392,6.414-0.58c0.369-0.174,0.806-0.207,1.215-0.285
	c0.276-0.052,0.603,0.012,0.833-0.113c2.121-1.142,4.549-1.469,6.694-2.571c0.811-0.417,1.805-0.559,2.733-0.644
	c1.124-0.103,1.816,0.514,2.26,1.562c0.754,1.781,0.506,3.647,0.448,5.47c-0.076,2.408-0.394,4.809-0.587,7.214
	c-0.044,0.55-0.006,1.105-0.006,1.729c0.78-0.007,1.01-0.545,1.328-0.897c1.585-1.759,2.915-1.635,4.622-0.055
	c0.485,0.448,0.929,0.951,1.339,1.471c1.646,2.088,3.763,3.277,6.441,3.338c1.228,0.028,2.444-0.109,3.574-0.691
	c0.798-0.412,1.632-0.755,2.44-1.149c0.631-0.308,0.994-0.76,1.058-1.535c0.105-1.256,0.84-2.183,1.883-2.861
	c0.823-0.534,1.299-0.513,1.922,0.059c0.61,0.56,0.746,1.325,0.265,2.035c-0.369,0.543-0.825,1.034-1.28,1.513
	C70.16,36.011,69.85,36.16,69.473,36.423z"/>
<path fill-rule="evenodd" clip-rule="evenodd" fill="#99CEDA" stroke="#99CEDA" stroke-miterlimit="10" d="M359.739,28.947
	c0.087-0.709,0.226-1.447,0.26-2.19c0.068-1.471,0.696-2.739,1.356-4c0.128-0.245,0.316-0.497,0.542-0.642
	c0.216-0.137,0.571-0.253,0.769-0.164c0.191,0.085,0.383,0.458,0.358,0.681c-0.094,0.845-0.237,1.688-0.433,2.515
	c-0.273,1.151-0.581,2.298-0.926,3.43c-0.916,2.997,0.428,4.578,2.574,5.713c1.154,0.61,2.448,0.884,3.724,0.701
	c1.957-0.279,3.946-0.564,5.813-1.176c2.289-0.749,4.471-1.825,6.686-2.788c0.472-0.205,0.888-0.537,1.331-0.807
	c0.853-0.517,1.651-0.21,1.577,0.722c-0.077,0.965-0.417,1.924-0.754,2.844c-0.092,0.253-0.588,0.357-0.898,0.529
	c-0.158-0.308-0.369-0.602-0.455-0.929c-0.067-0.255,0.021-0.551,0.056-1.07c-0.68,0.246-1.23,0.439-1.776,0.644
	c-2.873,1.079-5.711,2.262-8.625,3.21c-2.256,0.734-4.644,0.589-6.865-0.146c-1.148-0.379-2.103-1.374-3.107-2.141
	c-0.326-0.249-0.53-0.655-0.8-1.002c-0.161,0.06-0.335,0.069-0.407,0.16c-0.823,1.027-1.628,2.071-2.445,3.104
	c-0.749,0.947-1.645,1.652-2.848,1.993c-1.301,0.369-2.08,0.133-2.72-1.042c-0.156-0.286-0.259-0.601-0.456-1.066
	c-0.484,0.207-0.943,0.396-1.396,0.6c-1.898,0.855-3.774,1.266-5.882,0.54c-1.508-0.52-2.347-1.499-2.954-2.827
	c-0.191-0.42-0.311-0.872-0.532-1.509c-0.901,1.159-1.732,2.17-2.498,3.227c-0.914,1.262-2.026,2.276-3.519,2.74
	c-0.7,0.218-1.5,0.299-2.226,0.21c-1.102-0.133-1.958-1.6-1.589-2.935c0.861-3.115,2.647-5.553,5.747-6.779
	c1.391-0.551,2.304,0.169,2.411,1.876c-0.275-0.223-0.483-0.371-0.667-0.545c-0.359-0.34-0.737-0.369-1.168-0.145
	c-2.233,1.167-3.89,2.869-4.688,5.279c-0.466,1.405,0.149,2.02,1.58,1.667c0.488-0.12,0.976-0.354,1.392-0.642
	c1.5-1.033,2.691-2.374,3.719-3.87c0.829-1.205,1.287-2.472,1.155-3.989c-0.165-1.884,0.239-3.679,1.373-5.253
	c0.11-0.154,0.219-0.311,0.337-0.457c0.304-0.376,0.645-0.806,1.177-0.564c0.521,0.236,0.482,0.771,0.369,1.249
	c-0.393,1.658-0.69,3.35-1.233,4.958c-0.538,1.591-0.343,3.113,0.135,4.594c0.642,1.986,2.342,3.026,4.569,2.813
	c1.21-0.116,2.398-0.511,3.583-0.83c0.814-0.22,1.329-0.759,1.723-1.548c1.037-2.075,2.827-3.43,4.836-4.438
	C357.785,29.069,358.759,29.114,359.739,28.947z M359.012,30.885c-1.178-0.561-1.89,0.201-2.576,0.671
	c-0.717,0.489-1.493,1.034-1.984,2.077c0.883-0.325,1.558-0.573,2.233-0.822c-0.116,0.452-0.329,0.703-0.598,0.851
	c-0.739,0.405-1.493,0.788-2.26,1.138c-0.553,0.253-0.832,0.689-0.732,1.235c0.111,0.61,0.703,0.553,1.159,0.534
	c0.318-0.013,0.688-0.093,0.938-0.275c1.67-1.215,3-2.717,3.733-4.682C359.002,31.402,358.981,31.156,359.012,30.885z"/>
<path fill-rule="evenodd" clip-rule="evenodd" fill="#99CEDA" stroke="#99CEDA" stroke-miterlimit="10" d="M415.037,40.855
	c0.703-0.222,1.224-0.395,1.75-0.551c3.034-0.901,6.068-1.805,9.105-2.694c0.908-0.266,1.826-0.494,2.741-0.735
	c0.895-0.236,1.706-0.583,1.996-1.598c0.866,0.716,0.915,0.878,0.44,1.489c-0.172,0.222-0.366,0.486-0.609,0.585
	c-1.346,0.549-2.557,1.407-4.063,1.6c-1.017,0.13-2.022,0.429-3.003,0.745c-2.474,0.797-4.955,1.585-7.384,2.505
	c-1.026,0.389-1.704,1.172-1.841,2.444c-0.51,4.729-2.114,9.104-4.563,13.173c-0.218,0.36-0.446,0.741-0.755,1.016
	c-0.633,0.56-1.48,0.373-1.89-0.379c-0.624-1.146-0.913-2.338-0.771-3.676c0.445-4.188,1.921-7.889,4.93-10.905
	c0.3-0.301,0.599-0.636,0.965-0.83c0.948-0.507,1.303-1.33,1.367-2.323c0.099-1.554,0.188-3.108,0.238-4.664
	c0.019-0.571-0.099-1.138-0.891-1.552c-0.397,0.314-0.9,0.638-1.311,1.052c-1.014,1.023-2.182,1.824-3.512,2.33
	c-1.371,0.522-1.678,0.321-2.216-1.08c-0.067-0.175-0.144-0.346-0.278-0.666c-1.315,0.058-2.658,0.136-4,0.169
	c-0.945,0.023-1.895,0.028-2.837-0.035c-1.727-0.117-3.054-0.909-3.892-2.459c-0.27-0.499-0.528-1.008-0.85-1.472
	c-1.296-1.863-3.822-1.705-4.966,0.302c-0.14,0.246-0.317,0.507-0.345,0.774c-0.162,1.597-1.396,2.648-2.019,4.01
	c-0.112,0.246-0.602,0.319-0.917,0.473c-0.147-0.309-0.387-0.609-0.414-0.928c-0.025-0.298,0.131-0.639,0.284-0.919
	c0.611-1.122,1.193-2.267,1.901-3.326c0.543-0.815,1.172-1.618,1.915-2.247c2.091-1.774,4.459-1.34,5.903,0.991
	c0.174,0.281,0.359,0.563,0.485,0.867c0.7,1.675,2.065,2.456,3.76,2.602c1.881,0.161,3.777,0.141,5.666,0.212
	c0.491,0.019,0.727-0.244,1.005-0.622c1.288-1.746,2.97-3.027,4.938-3.925c0.615-0.279,1.251-0.402,1.912-0.052
	c0.67,0.356,0.921,0.895,0.902,1.628c-0.006,0.221,0.083,0.485,0.219,0.659c1.375,1.768,1.239,3.809,1.089,5.854
	C415.173,39.344,415.111,39.99,415.037,40.855z M412.525,44.433c-0.418,0.296-0.608,0.405-0.768,0.548
	c-1.338,1.193-2.229,2.702-2.93,4.318c-0.954,2.196-1.586,4.469-1.25,6.902c0.045,0.328,0.211,0.639,0.435,1.287
	C410.535,53.318,412.346,49.318,412.525,44.433z M412.458,32.29c-1.851,0.217-3.368,0.975-4.505,2.648
	C410.178,35.106,411.439,33.904,412.458,32.29z"/>
<path fill-rule="evenodd" clip-rule="evenodd" fill="#99CEDA" stroke="#99CEDA" stroke-miterlimit="10" d="M227.762,33.246
	c-0.71,0.877-1.301,1.658-1.949,2.39c-0.497,0.561-1.055,1.069-1.604,1.582c-0.77,0.718-1.663,0.646-2.519,0.243
	c-0.917-0.432-1.474-1.136-1.431-2.243c0.036-0.89,0.291-1.676,0.82-2.375c1.328-1.752,2.841-3.317,4.802-4.354
	c0.607-0.32,1.327-0.515,2.013-0.581c1.539-0.15,2.252,0.745,1.698,2.19c-0.407,1.062-0.357,1.998,0.107,3.007
	c0.747,1.623,2.562,2.699,4.285,2.293c5.311-1.251,9.705-3.922,12.761-8.547c0.387-0.586,0.58-1.297,0.937-1.907
	c0.171-0.292,0.583-0.721,0.767-0.668c0.339,0.097,0.772,0.461,0.845,0.786c0.235,1.058,0.411,2.144,0.452,3.225
	c0.057,1.509-0.031,3.022-0.048,4.534c-0.002,0.173,0.048,0.346,0.1,0.682c0.744-0.552,1.38-1.015,2.008-1.489
	c1.676-1.267,3.622-1.617,5.641-1.528c1.196,0.053,2.381,0.366,2.898,1.674c0.464,1.173,0.075,2.92-1.032,3.75
	c-1.999,1.499-4.242,2.313-6.774,1.609c-0.804-0.223-1.549-0.658-2.63-1.132c-0.073,0.17-0.115,0.524-0.277,0.592
	c-0.364,0.151-0.873,0.328-1.162,0.181c-0.276-0.142-0.488-0.68-0.489-1.044c-0.005-2.081,0.07-4.162,0.096-6.242
	c0.007-0.588-0.06-1.176-0.108-2.044c-0.488,0.476-0.785,0.697-0.996,0.982c-1.923,2.608-4.464,4.505-7.256,6.03
	c-1.562,0.854-3.296,1.408-4.985,2.005c-1.688,0.597-3.287,0.069-4.762-0.74c-0.546-0.301-0.949-0.898-1.352-1.412
	C228.304,34.297,228.094,33.82,227.762,33.246z M250.606,35.436c2.572,1.229,4.927,0.867,7.173-0.535
	c0.414-0.258,0.75-0.734,0.971-1.184c0.405-0.822,0.035-1.482-0.867-1.682c-0.271-0.061-0.559-0.064-0.839-0.059
	C254.391,32.029,252.23,33.034,250.606,35.436z M227.575,29.646c-2.292,0.936-3.929,2.278-5.082,4.187
	c-0.539,0.891-0.593,1.822-0.114,2.064c0.807,0.409,1.342-0.207,1.844-0.664c1.451-1.32,2.403-2.998,3.236-4.746
	C227.549,30.298,227.523,30.053,227.575,29.646z"/>
<path fill-rule="evenodd" clip-rule="evenodd" fill="#99CEDA" stroke="#99CEDA" stroke-miterlimit="10" d="M305.455,26.144
	c-0.296,0.725-0.652,1.433-0.877,2.179c-0.684,2.264-1.303,4.546-1.978,6.812c-0.216,0.724-0.473,1.446-0.809,2.12
	c-0.681,1.365-1.898,1.533-2.776,0.32c-0.543-0.75-1.028-1.637-1.219-2.53c-0.77-3.604-1.435-7.231-2.098-10.857
	c-0.306-1.673-0.542-3.36-0.761-5.047c-0.064-0.499-0.013-1.033,0.097-1.527c0.046-0.208,0.378-0.487,0.583-0.489
	c0.209-0.003,0.536,0.255,0.611,0.469c0.17,0.483,0.238,1.007,0.308,1.52c0.509,3.747,0.935,7.508,1.542,11.238
	c0.279,1.716,0.894,3.378,1.39,5.055c0.1,0.337,0.355,0.627,0.69,1.193c0.345-0.779,0.626-1.304,0.814-1.859
	c0.984-2.915,1.935-5.842,2.922-8.757c0.227-0.669,0.519-1.323,0.844-1.951c0.495-0.959,1.265-1.009,1.812-0.059
	c0.394,0.683,0.682,1.459,0.855,2.23c0.361,1.615,0.464,3.3,0.947,4.872c0.832,2.709,1.835,5.371,3.717,7.582
	c0.118,0.138,0.281,0.236,0.585,0.487c0.442-0.5,0.991-0.911,1.254-1.46c0.837-1.744,1.585-3.533,2.336-5.317
	c0.679-1.613,1.231-3.286,2.007-4.85c0.451-0.908,1.147-1.744,1.889-2.448c1.026-0.974,1.979-0.962,3.437-0.166
	c-0.729,0.598-1.592,0.561-2.375,0.692c-2.204,3.126-3.396,6.674-4.609,10.204c-0.483,1.403-1.051,2.741-2.058,3.847
	c-0.278,0.306-0.626,0.583-0.997,0.763c-1.079,0.523-1.529,0.394-2.357-0.512c-1.796-1.965-2.919-4.312-3.681-6.812
	c-0.562-1.846-0.872-3.768-1.306-5.652c-0.093-0.405-0.234-0.8-0.354-1.199C305.712,26.203,305.583,26.174,305.455,26.144z"/>
<path fill-rule="evenodd" clip-rule="evenodd" fill="#99CEDA" stroke="#99CEDA" stroke-miterlimit="10" d="M177.3,35.299
	c1.5,0.669,2.586-0.079,3.644-0.776c1.054-0.694,1.179-1.031,1.583-3.078c0.445-0.233,0.711,0.027,0.923,0.365
	c0.694,1.108,0.528,2.49-0.485,3.339c-1.167,0.977-2.458,1.802-3.939,2.192c-0.655,0.173-1.413,0.161-2.083,0.027
	c-1.08-0.216-1.669-1.073-1.658-2.165c0.005-0.462,0.063-0.924,0.108-1.536c-0.729,0-1.316-0.032-1.9,0.006
	c-2.545,0.163-5.09,0.344-7.635,0.523c-0.661,0.047-1.323,0.087-1.979,0.174c-1.079,0.142-1.317,0.444-1.121,1.505
	c0.334,1.801,1.127,3.409,2.19,4.886c0.676,0.938,0.836,1.466,0.381,1.682c-0.742,0.351-1.189-0.272-1.505-0.732
	c-1.316-1.915-2.528-3.902-2.773-6.288c-0.37-3.59-0.356-7.178,0.345-10.73c0.401-2.032,1.221-3.869,2.887-5.228
	c1.702-1.387,3.678-1.349,5.277,0.14c1.226,1.14,2.339,2.362,2.711,4.069c0.066,0.306,0.069,0.625-0.089,1.001
	c-0.305-0.601-0.544-1.248-0.932-1.788c-0.382-0.533-0.912-0.96-1.38-1.429c-2.101-2.105-4.67-1.376-5.784,0.812
	c-0.505,0.991-0.879,2.088-1.099,3.179c-0.464,2.321-0.701,4.677-0.413,7.229c0.39,0.039,0.79,0.144,1.177,0.109
	c2.308-0.208,4.608-0.521,6.92-0.653c1.74-0.1,3.494,0.053,5.241,0.021c0.788-0.015,1.574-0.191,2.356-0.323
	c0.604-0.101,1.196-0.317,1.801-0.351c0.644-0.036,1.073,0.375,1.176,1.011c0.107,0.658-0.227,1.114-0.857,1.276
	c-0.594,0.153-1.21,0.219-1.815,0.327C177.942,34.205,177.379,34.396,177.3,35.299z"/>
<path fill-rule="evenodd" clip-rule="evenodd" fill="#99CEDA" stroke="#99CEDA" stroke-miterlimit="10" d="M219.478,36.394
	c-1.973,0.91-3.92,1.589-6.229,0.745c-2.205-0.807-3.47-2.506-4.748-4.425c-0.285,0.299-0.559,0.486-0.697,0.746
	c-1.344,2.53-3.371,4.271-6.037,5.278c-0.979,0.37-2.662-0.1-3.405-0.915c-0.78-0.857-0.974-2.46-0.357-3.61
	c0.287-0.535,0.661-1.054,1.098-1.473c1.394-1.335,3.062-2.274,4.93-2.679c1.07-0.23,2.231-0.042,3.515-0.042
	c-0.101-0.547-0.293-1.213-0.332-1.888c-0.068-1.174-0.056-2.353-0.044-3.528c0.002-0.275,0.059-0.611,0.224-0.809
	c0.249-0.299,0.593-0.647,0.935-0.693c0.236-0.032,0.697,0.365,0.78,0.65c0.458,1.588,1.166,3.223,0.727,4.864
	c-0.641,2.391,0.26,4.127,1.843,5.729c1.583,1.602,3.539,2.125,5.711,1.952c0.669-0.053,1.325-0.283,1.987-0.433
	C219.412,36.042,219.445,36.218,219.478,36.394z M200.889,37.148c0.09-0.015,0.284-0.021,0.461-0.079
	c2.722-0.868,4.609-2.705,5.922-5.176c0.263-0.495-0.048-0.886-0.561-0.876c-0.795,0.015-1.658-0.012-2.367,0.281
	c-1.483,0.612-2.895,1.42-4.002,2.622c-0.372,0.403-0.681,0.917-0.858,1.436C199.13,36.397,199.7,37.123,200.889,37.148z"/>
<path fill-rule="evenodd" clip-rule="evenodd" fill="#99CEDA" stroke="#99CEDA" stroke-miterlimit="10" d="M156.568,22.638
	c0.202-1.111,0.116-2.19-0.898-2.765c-0.801-0.455-1.731-0.836-2.636-0.926c-2.735-0.271-4.279,0.922-4.859,3.738
	c-0.575,2.792-0.489,5.544-0.153,8.324c0.205,1.696,0.315,1.771,1.998,1.887c2.168,0.148,4.194-0.458,6.214-1.115
	c0.458-0.149,0.927-0.263,1.634-0.46c-1.046,1.352-6.05,3.184-8.927,3.42c0.031,1.206,0.458,2.255,1.166,3.215
	c0.449,0.609,0.888,1.226,1.33,1.84c0.278,0.388,0.365,0.826-0.016,1.147c-0.398,0.335-0.807,0.111-1.127-0.217
	c-1.41-1.445-2.357-3.152-2.944-5.083c-0.3-0.985-0.725-1.932-1.075-2.902c-0.11-0.305-0.318-0.705-0.21-0.934
	c0.611-1.299,0.171-2.614,0.104-3.902c-0.105-2.045-0.081-4.064,0.419-6.056c0.507-2.02,1.475-3.627,3.596-4.391
	c1.613-0.582,5.587,0.259,6.761,2.219c0.265,0.442,0.332,1.06,0.323,1.594c-0.007,0.444-0.261,0.884-0.406,1.325
	C156.765,22.61,156.666,22.624,156.568,22.638z"/>
<path fill-rule="evenodd" clip-rule="evenodd" fill="#99CEDA" stroke="#99CEDA" stroke-miterlimit="10" d="M103.341,26.347
	c0.653-0.717,1.212-0.772,1.646-0.112c0.93,1.415,1.798,2.872,2.68,4.318c0.068,0.112,0.066,0.277,0.067,0.418
	c0.012,2.649-0.805,5.041-2.987,6.569c-1.686,1.182-3.667,1.972-5.875,1.719c-2.397-0.274-4.465-1.206-6.068-3.027
	c-1.922-2.182-3.26-4.678-3.437-7.622c-0.135-2.241,0.139-4.449,1.633-6.303c0.367-0.456,0.743-0.891,1.503-0.317
	c-0.402,0.934-0.924,1.838-1.185,2.812c-0.519,1.942-0.628,3.929,0.036,5.874c0.604,1.766,1.555,3.329,2.833,4.701
	c3.517,3.776,9.488,2.624,11.483-2.037c0.917-2.143,0.129-3.97-1.132-5.68C104.208,27.212,103.788,26.831,103.341,26.347z"/>
<path fill-rule="evenodd" clip-rule="evenodd" fill="#99CEDA" stroke="#99CEDA" stroke-width="0.5" stroke-miterlimit="10" d="
	M143.529,35.242c-0.05,0.278-0.025,0.489-0.118,0.608c-1.249,1.597-3.337,1.92-4.992,0.708c-0.676-0.494-1.233-1.151-1.835-1.745
	c-0.228-0.225-0.428-0.478-0.777-0.87c-0.824,0.783-1.584,1.522-2.362,2.243c-0.7,0.648-1.406,1.287-2.494,1.029
	c-1.04-0.247-1.62-1.026-1.503-2.074c0.309-2.764,4.355-5.403,6.982-4.556c0.994,0.321,1.537,1.06,1.55,2.104
	c0.021,1.749,1.617,3.167,3.395,2.971C142.063,35.585,142.738,35.399,143.529,35.242z M131.783,35.056
	c1.172-0.588,1.89-1.609,2.591-2.646C133.348,33.131,132.058,33.581,131.783,35.056z"/>
<path fill-rule="evenodd" clip-rule="evenodd" fill="#99CEDA" stroke="#99CEDA" stroke-miterlimit="10" d="M113.303,35.534
	c0.714-0.984,1.252-1.862,1.929-2.616c0.521-0.58,1.16-1.114,1.848-1.474c1.154-0.602,2.317-0.401,3.273,0.483
	c0.762,0.704,1.424,1.515,2.152,2.256c1.281,1.302,2.759,1.955,4.619,1.39c0.305-0.092,0.662-0.013,1.179-0.013
	c-0.53,1.132-1.209,1.462-2.17,1.654c-2.059,0.409-3.438-0.541-4.691-1.951c-0.625-0.704-1.272-1.393-1.95-2.046
	c-0.391-0.376-0.864-0.518-1.433-0.276c-0.981,0.416-1.85,0.916-2.353,1.929c-0.482,0.969-1.001,1.925-1.581,2.837
	c-0.229,0.36-0.626,0.727-1.021,0.843c-0.557,0.165-0.777-0.38-1.007-0.801c-0.522-0.954-0.712-1.969-0.449-3.018
	c0.075-0.299,0.392-0.63,0.678-0.741c0.142-0.056,0.514,0.319,0.69,0.564C113.161,34.757,113.171,35.056,113.303,35.534z"/>
<path fill-rule="evenodd" clip-rule="evenodd" fill="#99CEDA" stroke="#99CEDA" stroke-miterlimit="10" d="M268.251,33.006
	c0.059-0.16,0.062-0.23,0.094-0.245c0.871-0.434,1.961-1.396,2.606-2.311c1.101-1.559,2.381-2,3.896-1.344
	c1.214,0.527,1.369,1.632,0.267,2.391c-0.614,0.423-1.341,0.691-2.037,0.98c-1.172,0.485-1.31,1.294-0.294,2.07
	c1.21,0.925,2.582,0.768,3.946,0.49c1.201-0.244,2.393-0.534,3.591-0.793c0.154-0.033,0.322-0.005,0.571,0.259
	c-0.58,0.264-1.141,0.595-1.745,0.777c-1.221,0.369-2.462,0.675-3.703,0.976c-2.115,0.511-3.758-0.152-4.816-2.002
	c-0.394-0.688-0.836-1.11-1.675-1.033C268.729,33.242,268.488,33.083,268.251,33.006z M272.658,31.231
	c0.644-0.046,1.042-0.202,1.246-0.892C273.247,30.374,272.851,30.533,272.658,31.231z"/>
<path fill-rule="evenodd" clip-rule="evenodd" fill="#99CEDA" stroke="#99CEDA" stroke-miterlimit="10" d="M324.922,35.833
	c0.555,0.974,1.47,0.51,2.153,0.835c0.061,0.663-0.405,0.921-0.897,1.055c-0.682,0.185-1.425,0.349-2.033-0.16
	c-0.386-0.323-0.79-0.73-0.962-1.184c-0.755-1.99-0.601-3.892,0.84-5.561c0.802-0.929,1.601-1.855,2.904-2.144
	c1.199-0.265,2.084,0.481,1.644,1.613c-0.4,1.028-1.098,1.948-1.719,2.879C326.23,34.097,325.543,34.98,324.922,35.833z
	 M327.409,30.606c-0.095-0.094-0.189-0.188-0.283-0.281c-1.188,0.14-1.649,1.203-2.302,1.994c-0.512,0.621-0.719,1.353-0.369,2.374
	C325.519,33.223,326.464,31.915,327.409,30.606z"/>
<path fill-rule="evenodd" clip-rule="evenodd" fill="#99CEDA" stroke="#99CEDA" stroke-miterlimit="10" d="M196.765,30.235
	c-0.289,0.083-0.576,0.222-0.869,0.238c-0.99,0.056-1.986,0.141-2.973,0.08c-1.663-0.101-2.716,0.865-3.741,1.941
	c-0.933,0.979-1.304,2.169-1.316,3.491c-0.005,0.562-0.092,1.116-0.764,1.153c-0.634,0.034-0.894-0.454-0.959-1.023
	c-0.141-1.224-0.256-2.448,0.175-3.753c0.818,0.155,1.289-0.196,1.722-0.939c0.728-1.252,2.015-1.825,3.4-2.113
	c1.857-0.387,3.589,0.133,5.322,0.608C196.762,30.024,196.763,30.13,196.765,30.235z"/>
<path fill-rule="evenodd" clip-rule="evenodd" fill="#99CEDA" stroke="#99CEDA" stroke-miterlimit="10" d="M265.24,37.589
	c-1.444,0.05-2.306-0.771-2.201-2.122c0.255-3.298,0.62-6.587,0.979-9.876c0.046-0.424,0.326-0.822,0.537-1.327
	c0.955,0.608,0.832,1.403,0.787,2.11c-0.068,1.085-0.249,2.163-0.363,3.245C264.703,32.247,264.241,34.879,265.24,37.589z"/>
<path fill-rule="evenodd" clip-rule="evenodd" fill="#99CEDA" stroke="#99CEDA" stroke-miterlimit="10" d="M382.887,23.891
	c1.036-0.465,1.383-0.422,1.523,0.168c0.122,0.513-0.001,0.94-0.569,1.1C383.3,25.31,383.088,25.033,382.887,23.891z"/>
</svg>
